<?xml version="1.0" encoding="UTF-8" standalone="no"?><svg xmlns="http://www.w3.org/2000/svg" xmlns:xlink="http://www.w3.org/1999/xlink" contentScriptType="application/ecmascript" contentStyleType="text/css" height="299px" preserveAspectRatio="none" style="width:257px;height:299px;" version="1.1" viewBox="0 0 257 299" width="257px" zoomAndPan="magnify"><defs><filter height="300%" id="fuong8r38mcdo" width="300%" x="-1" y="-1"><feGaussianBlur result="blurOut" stdDeviation="2.0"/><feColorMatrix in="blurOut" result="blurOut2" type="matrix" values="0 0 0 0 0 0 0 0 0 0 0 0 0 0 0 0 0 0 .4 0"/><feOffset dx="4.0" dy="4.0" in="blurOut2" result="blurOut3"/><feBlend in="SourceGraphic" in2="blurOut3" mode="normal"/></filter></defs><g><line style="stroke: #A80036; stroke-width: 1.0; stroke-dasharray: 5.0,5.0;" x1="40" x2="40" y1="38.2969" y2="259.0938"/><line style="stroke: #A80036; stroke-width: 1.0; stroke-dasharray: 5.0,5.0;" x1="138" x2="138" y1="38.2969" y2="259.0938"/><line style="stroke: #A80036; stroke-width: 1.0; stroke-dasharray: 5.0,5.0;" x1="221" x2="221" y1="38.2969" y2="259.0938"/><rect fill="#FEFECE" filter="url(#fuong8r38mcdo)" height="30.2969" style="stroke: #A80036; stroke-width: 1.5;" width="61" x="8" y="3"/><text fill="#000000" font-family="sans-serif" font-size="14" lengthAdjust="spacingAndGlyphs" textLength="47" x="15" y="22.9951">Queue</text><rect fill="#FEFECE" filter="url(#fuong8r38mcdo)" height="30.2969" style="stroke: #A80036; stroke-width: 1.5;" width="61" x="8" y="258.0938"/><text fill="#000000" font-family="sans-serif" font-size="14" lengthAdjust="spacingAndGlyphs" textLength="47" x="15" y="278.0889">Queue</text><rect fill="#FEFECE" filter="url(#fuong8r38mcdo)" height="30.2969" style="stroke: #A80036; stroke-width: 1.5;" width="35" x="119" y="3"/><text fill="#000000" font-family="sans-serif" font-size="14" lengthAdjust="spacingAndGlyphs" textLength="21" x="126" y="22.9951">DB</text><rect fill="#FEFECE" filter="url(#fuong8r38mcdo)" height="30.2969" style="stroke: #A80036; stroke-width: 1.5;" width="35" x="119" y="258.0938"/><text fill="#000000" font-family="sans-serif" font-size="14" lengthAdjust="spacingAndGlyphs" textLength="21" x="126" y="278.0889">DB</text><rect fill="#FEFECE" filter="url(#fuong8r38mcdo)" height="30.2969" style="stroke: #A80036; stroke-width: 1.5;" width="53" x="193" y="3"/><text fill="#000000" font-family="sans-serif" font-size="14" lengthAdjust="spacingAndGlyphs" textLength="39" x="200" y="22.9951">Client</text><rect fill="#FEFECE" filter="url(#fuong8r38mcdo)" height="30.2969" style="stroke: #A80036; stroke-width: 1.5;" width="53" x="193" y="258.0938"/><text fill="#000000" font-family="sans-serif" font-size="14" lengthAdjust="spacingAndGlyphs" textLength="39" x="200" y="278.0889">Client</text><polygon fill="#A80036" points="126.5,65.4297,136.5,69.4297,126.5,73.4297,130.5,69.4297" style="stroke: #A80036; stroke-width: 1.0;"/><line style="stroke: #A80036; stroke-width: 1.0;" x1="40.5" x2="132.5" y1="69.4297" y2="69.4297"/><text fill="#000000" font-family="sans-serif" font-size="13" lengthAdjust="spacingAndGlyphs" textLength="74" x="47.5" y="64.3638">Transaction</text><polygon fill="#A80036" points="209.5,94.5625,219.5,98.5625,209.5,102.5625,213.5,98.5625" style="stroke: #A80036; stroke-width: 1.0;"/><line style="stroke: #A80036; stroke-width: 1.0;" x1="40.5" x2="215.5" y1="98.5625" y2="98.5625"/><text fill="#000000" font-family="sans-serif" font-size="13" lengthAdjust="spacingAndGlyphs" textLength="64" x="47.5" y="93.4966">Push data</text><line style="stroke: #A80036; stroke-width: 1.0;" x1="138.5" x2="180.5" y1="127.6953" y2="127.6953"/><line style="stroke: #A80036; stroke-width: 1.0;" x1="180.5" x2="180.5" y1="127.6953" y2="140.6953"/><line style="stroke: #A80036; stroke-width: 1.0;" x1="139.5" x2="180.5" y1="140.6953" y2="140.6953"/><polygon fill="#A80036" points="149.5,136.6953,139.5,140.6953,149.5,144.6953,145.5,140.6953" style="stroke: #A80036; stroke-width: 1.0;"/><text fill="#000000" font-family="sans-serif" font-size="13" lengthAdjust="spacingAndGlyphs" textLength="69" x="145.5" y="122.6294">Processing</text><polygon fill="#A80036" points="51.5,165.8281,41.5,169.8281,51.5,173.8281,47.5,169.8281" style="stroke: #A80036; stroke-width: 1.0;"/><line style="stroke: #A80036; stroke-width: 1.0; stroke-dasharray: 2.0,2.0;" x1="45.5" x2="137.5" y1="169.8281" y2="169.8281"/><text fill="#000000" font-family="sans-serif" font-size="13" lengthAdjust="spacingAndGlyphs" textLength="18" x="57.5" y="164.7622">OK</text><polygon fill="#A80036" points="51.5,194.9609,41.5,198.9609,51.5,202.9609,47.5,198.9609" style="stroke: #A80036; stroke-width: 1.0;"/><line style="stroke: #A80036; stroke-width: 1.0; stroke-dasharray: 2.0,2.0;" x1="45.5" x2="220.5" y1="198.9609" y2="198.9609"/><text fill="#000000" font-family="sans-serif" font-size="13" lengthAdjust="spacingAndGlyphs" textLength="18" x="57.5" y="193.895">OK</text><line style="stroke: #A80036; stroke-width: 1.0;" x1="40.5" x2="82.5" y1="228.0938" y2="228.0938"/><line style="stroke: #A80036; stroke-width: 1.0;" x1="82.5" x2="82.5" y1="228.0938" y2="241.0938"/><line style="stroke: #A80036; stroke-width: 1.0;" x1="41.5" x2="82.5" y1="241.0938" y2="241.0938"/><polygon fill="#A80036" points="51.5,237.0938,41.5,241.0938,51.5,245.0938,47.5,241.0938" style="stroke: #A80036; stroke-width: 1.0;"/><text fill="#000000" font-family="sans-serif" font-size="13" lengthAdjust="spacingAndGlyphs" textLength="33" x="47.5" y="223.0278">Clear</text><!--MD5=[52d5c6129d9c4cc64dd926a853f5993c]
@startuml
Queue -> DB : Transaction
Queue -> Client : Push data
DB -> DB : Processing
DB - -> Queue : OK
Client - -> Queue : OK
Queue -> Queue : Clear
@enduml

PlantUML version 1.2020.02(Sun Mar 01 11:22:07 CET 2020)
(GPL source distribution)
Java Runtime: OpenJDK Runtime Environment
JVM: OpenJDK 64-Bit Server VM
Java Version: 11.0.26+4-post-Ubuntu-1ubuntu122.04
Operating System: Linux
Default Encoding: UTF-8
Language: en
Country: null
--></g></svg>